<?xml version="1.0" encoding="UTF-8"?>
<svg width="161px" height="26px" viewBox="0 0 161 26" version="1.1" xmlns="http://www.w3.org/2000/svg" xmlns:xlink="http://www.w3.org/1999/xlink">
    <!-- Generator: Sketch 63.1 (92452) - https://sketch.com -->
    <title>Group 2</title>
    <desc>Created with Sketch.</desc>
    <g id="Michael" stroke="none" stroke-width="1" fill="none" fill-rule="evenodd">
        <g id="1_Desktop_New" transform="translate(-769.000000, -6055.000000)" fill="#1C1C1E">
            <g id="newfooter" transform="translate(0.000000, 5993.000000)">
                <g id="Group-2" transform="translate(769.000000, 62.000000)">
                    <path d="M71,4.48559892 C70.0436875,4.90713324 69.0150625,5.19219381 67.9360625,5.32059219 C69.0378125,4.6640646 69.883625,3.62557201 70.28175,2.38761777 C69.2515,2.9948856 68.109125,3.43580081 66.8944375,3.67402423 C65.9210625,2.643607 64.5349375,2 63.0009375,2 C60.0548125,2 57.666875,4.37335128 57.666875,7.30148048 C57.666875,7.71655451 57.714,8.12113055 57.805,8.50955585 C53.3711875,8.28829071 49.441125,6.17738896 46.81025,2.96985195 C46.3511875,3.75316285 46.0879375,4.6640646 46.0879375,5.63553163 C46.0879375,7.47429341 47.029625,9.0974428 48.4604375,10.0479139 C47.5861875,10.0204576 46.7639375,9.78223419 46.044875,9.38492598 C46.0440625,9.40753701 46.0440625,9.42934051 46.0440625,9.45195155 C46.0440625,12.0207268 47.88275,14.1631225 50.3235,14.6500673 C49.8758125,14.7711978 49.4045625,14.8358008 48.917875,14.8358008 C48.5741875,14.8358008 48.24025,14.8026918 47.9144375,14.741319 C48.592875,16.8473755 50.5631875,18.3800808 52.8975,18.4228802 C51.0718125,19.8449529 48.771625,20.6920592 46.272375,20.6920592 C45.84175,20.6920592 45.417625,20.6670256 45,20.6185734 C47.3603125,22.1222073 50.16425,23 53.177,23 C62.98875,23 68.3536875,14.9213997 68.3536875,7.91601615 C68.3536875,7.6858681 68.3488125,7.45733513 68.33825,7.22960969 C69.3806875,6.48263795 70.285,5.54912517 71,4.48559892" id="Fill-1-Copy"></path>
                    <path d="M24.9169375,0 L1.083875,0 C0.4850625,0 0,0.4850625 0,1.0830625 L0,24.9169375 C0,25.5149375 0.4850625,26 1.083875,26 L13.8125,26 L13.8125,16.25 L10.5625,16.25 L10.5625,12.1875 L13.8125,12.1875 L13.8125,8.9375 C13.8125,5.5794375 15.9388125,3.9268125 18.9345,3.9268125 C20.369375,3.9268125 21.60275,4.0340625 21.961875,4.0811875 L21.961875,7.5911875 L19.8843125,7.592 C18.25525,7.592 17.875,8.3663125 17.875,9.5021875 L17.875,12.1875 L21.9375,12.1875 L21.125,16.25 L17.875,16.25 L17.94,26 L24.9169375,26 C25.5149375,26 26,25.5149375 26,24.9169375 L26,1.0830625 C26,0.4850625 25.5149375,0 24.9169375,0" id="Fill-3-Copy"></path>
                    <path d="M157.75,23.5625 L138.25,23.5625 C137.8015,23.5625 137.4375,23.1985 137.4375,22.75 L137.4375,10.5625 L140.6875,10.5625 C140.264187,11.171875 140.121187,12.3085625 140.121187,13.0300625 C140.121187,17.381 143.669375,20.9210625 148.030062,20.9210625 C152.391562,20.9210625 155.93975,17.381 155.93975,13.0300625 C155.93975,12.3085625 155.837375,11.1889375 155.3125,10.5625 L158.5625,10.5625 L158.5625,22.75 C158.5625,23.1985 158.1985,23.5625 157.75,23.5625 M148.030062,8.042125 C150.79175,8.042125 153.030187,10.2756875 153.030187,13.0300625 C153.030187,15.78525 150.79175,18.0188125 148.030062,18.0188125 C145.269188,18.0188125 143.03075,15.78525 143.03075,13.0300625 C143.03075,10.2756875 145.269188,8.042125 148.030062,8.042125 M154.5,3.25 L156.9375,3.25 C157.386,3.25 157.75,3.614 157.75,4.0625 L157.75,6.5 C157.75,6.9485 157.386,7.3125 156.9375,7.3125 L154.5,7.3125 C154.0515,7.3125 153.6875,6.9485 153.6875,6.5 L153.6875,4.0625 C153.6875,3.614 154.0515,3.25 154.5,3.25 M157.90925,0 L138.09075,0 C136.383687,0 135,1.3804375 135,3.0834375 L135,22.9165625 C135,24.6195625 136.383687,26 138.09075,26 L157.90925,26 C159.616313,26 161,24.6195625 161,22.9165625 L161,3.0834375 C161,1.3804375 159.616313,0 157.90925,0" id="Fill-23-Copy"></path>
                    <path d="M100.3155,15.3193673 L100.314687,8.12880437 L107.339562,11.736482 L100.3155,15.3193673 Z M115.74,6.88279202 C115.74,6.88279202 115.485687,5.11934065 114.7065,4.34278225 C113.717687,3.32309948 112.609437,3.31830097 112.101625,3.25911939 C108.46325,3 103.005687,3 103.005687,3 L102.994312,3 C102.994312,3 97.53675,3 93.898375,3.25911939 C93.38975,3.31830097 92.2823125,3.32309948 91.2926875,4.34278225 C90.5135,5.11934065 90.26,6.88279202 90.26,6.88279202 C90.26,6.88279202 90,8.9541476 90,11.0247034 L90,12.9664993 C90,15.0378549 90.26,17.1084107 90.26,17.1084107 C90.26,17.1084107 90.5135,18.8718621 91.2926875,19.6484205 C92.2823125,20.6681033 93.5815,20.6361132 94.16,20.7424801 C96.24,20.9392189 103,21 103,21 C103,21 108.46325,20.9920025 112.101625,20.7328831 C112.609437,20.6729018 113.717687,20.6681033 114.7065,19.6484205 C115.485687,18.8718621 115.74,17.1084107 115.74,17.1084107 C115.74,17.1084107 116,15.0378549 116,12.9664993 L116,11.0247034 C116,8.9541476 115.74,6.88279202 115.74,6.88279202 L115.74,6.88279202 Z" id="Fill-25-Copy"></path>
                </g>
            </g>
        </g>
    </g>
</svg>