<svg id="Passing" xmlns="http://www.w3.org/2000/svg" viewBox="0 0 969.83 619.88">
  <title>Track_02</title>
  <text transform="translate(538.93 32.51)" font-size="38" fill="#fff" font-family="Roboto-Regular, Roboto">P<tspan x="23.77" y="0">a</tspan><tspan x="44.43" y="0">s</tspan><tspan x="64.03" y="0">s</tspan><tspan x="83.62" y="0">i</tspan><tspan x="92.84" y="0">n</tspan></text>
  <text transform="translate(652.64 32.36) rotate(0.93)" font-size="38" fill="#fff" font-family="Roboto-Regular, Roboto">g</text>
  <text transform="translate(673.64 32.8) rotate(3.75)" font-size="38" fill="#fff" font-family="Roboto-Regular, Roboto"> </text>
  <text transform="translate(682.67 33.22) rotate(6.84)" font-size="38" fill="#fff" font-family="Roboto-Regular, Roboto">d</text>
  <text transform="translate(703.47 35.71) rotate(11.13)" font-size="38" fill="#fff" font-family="Roboto-Regular, Roboto">u</text>
  <text transform="translate(723.61 39.78) rotate(14.56)" font-size="38" fill="#fff" font-family="Roboto-Regular, Roboto">r</text>
  <text transform="translate(735.8 42.98) rotate(16.8)" font-size="38" fill="#fff" font-family="Roboto-Regular, Roboto">i</text>
  <text transform="translate(744.36 45.39) rotate(19.87)" font-size="38" fill="#fff" font-family="Roboto-Regular, Roboto">n</text>
  <text transform="translate(763.63 52.33) rotate(24.16)" font-size="38" fill="#fff" font-family="Roboto-Regular, Roboto">g</text>
  <text transform="translate(782.68 61.04) rotate(27.27)" font-size="38" fill="#fff" font-family="Roboto-Regular, Roboto"> </text>
  <text transform="matrix(0.86, 0.5, -0.5, 0.86, 790.82, 65.06)" font-size="38" fill="#fff" font-family="Roboto-Regular, Roboto">a</text>
  <text transform="matrix(0.84, 0.55, -0.55, 0.84, 808.29, 75.43)" font-size="38" fill="#fff" font-family="Roboto-Regular, Roboto"> </text>
  <text transform="translate(815.96 80.43) rotate(35.59)" font-size="38" fill="#fff" font-family="Roboto-Regular, Roboto">r</text>
  <text transform="translate(825.6 87.16) rotate(38.81)" font-size="38" fill="#fff" font-family="Roboto-Regular, Roboto">a</text>
  <text transform="translate(841.34 99.82) rotate(42.88)" font-size="38" fill="#fff" font-family="Roboto-Regular, Roboto">c</text>
  <text transform="translate(855.6 113.03) rotate(46.89)" font-size="38" fill="#fff" font-family="Roboto-Regular, Roboto">e</text>
  <text transform="translate(869.03 127.57) rotate(49.85)" font-size="38" fill="#fff" font-family="Roboto-Regular, Roboto"> </text>
  <text transform="translate(874.95 134.59) rotate(51.72)" font-size="38" fill="#fff" font-family="Roboto-Regular, Roboto">i</text>
  <text transform="translate(880.58 141.5) rotate(54.62)" font-size="38" fill="#fff" font-family="Roboto-Regular, Roboto">s</text>
  <text transform="translate(891.7 157.08) rotate(58.71)" font-size="38" fill="#fff" font-family="Roboto-Regular, Roboto">n</text>
  <text transform="translate(901.56 173.52) rotate(61.29)" font-size="38" fill="#fff" font-family="Roboto-Regular, Roboto">’</text>
  <text transform="matrix(0.45, 0.89, -0.89, 0.45, 905.14, 179.94)" font-size="38" fill="#fff" font-family="Roboto-Regular, Roboto">t</text>
  <text transform="translate(910.57 190.81) rotate(65.52)" font-size="38" fill="#fff" font-family="Roboto-Regular, Roboto"> </text>
  <text transform="translate(914.39 199.18) rotate(67.41)" font-size="38" fill="#fff" font-family="Roboto-Regular, Roboto">l</text>
  <text transform="translate(917.85 207.5) rotate(69.28)" font-size="38" fill="#fff" font-family="Roboto-Regular, Roboto">i</text>
  <text transform="translate(921.13 215.78) rotate(72.18)" font-size="38" fill="#fff" font-family="Roboto-Regular, Roboto">k</text>
  <text transform="matrix(0.24, 0.97, -0.97, 0.24, 926.81, 233.33)" font-size="38" fill="#fff" font-family="Roboto-Regular, Roboto">e</text>
  <text transform="translate(931.44 252.56) rotate(79.1)" font-size="38" fill="#fff" font-family="Roboto-Regular, Roboto"> </text>
  <text transform="translate(933.32 261.41) rotate(82.22)" font-size="38" fill="#fff" font-family="Roboto-Regular, Roboto">d</text>
  <text transform="translate(936.05 282.26) rotate(85.67)" font-size="38" fill="#fff" font-family="Roboto-Regular, Roboto">r</text>
  <text transform="translate(936.97 294.86) rotate(87.83)" font-size="38" fill="#fff" font-family="Roboto-Regular, Roboto">i</text>
  <text transform="matrix(-0.01, 1, -1, -0.01, 937.45, 303.73)" font-size="38" fill="#fff" font-family="Roboto-Regular, Roboto">v</text>
  <text transform="translate(937.12 321.83) rotate(93.36)" font-size="38" fill="#fff" font-family="Roboto-Regular, Roboto">i</text>
  <text transform="translate(936.77 330.72) rotate(96.39)" font-size="38" fill="#fff" font-family="Roboto-Regular, Roboto">n</text>
  <text transform="translate(934.51 351.08) rotate(100.66)" font-size="38" fill="#fff" font-family="Roboto-Regular, Roboto">g</text>
  <text transform="translate(930.49 371.63) rotate(103.77)" font-size="38" fill="#fff" font-family="Roboto-Regular, Roboto"> </text>
  <text transform="matrix(-0.29, 0.96, -0.96, -0.29, 928.49, 380.48)" font-size="38" fill="#fff" font-family="Roboto-Regular, Roboto">a</text>
  <text transform="translate(922.51 399.87) rotate(110.24)" font-size="38" fill="#fff" font-family="Roboto-Regular, Roboto">r</text>
  <text transform="translate(918.48 411.27) rotate(113.67)" font-size="38" fill="#fff" font-family="Roboto-Regular, Roboto">o</text>
  <text transform="translate(909.98 430.66) rotate(117.98)" font-size="38" fill="#fff" font-family="Roboto-Regular, Roboto">u</text>
  <text transform="matrix(-0.53, 0.85, -0.85, -0.53, 900.38, 448.77)" font-size="38" fill="#fff" font-family="Roboto-Regular, Roboto">n</text>
  <text transform="translate(889.49 466.1) rotate(126.48)" font-size="38" fill="#fff" font-family="Roboto-Regular, Roboto">d</text>
  <text transform="translate(876.83 482.97) rotate(129.58)" font-size="38" fill="#fff" font-family="Roboto-Regular, Roboto"> </text>
  <text transform="translate(871.17 490.06) rotate(132.6)" font-size="38" fill="#fff" font-family="Roboto-Regular, Roboto">a</text>
  <text transform="matrix(-0.71, 0.7, -0.7, -0.71, 857.33, 504.91)" font-size="38" fill="#fff" font-family="Roboto-Regular, Roboto"> </text>
  <text transform="translate(850.94 511.36) rotate(138.52)" font-size="38" fill="#fff" font-family="Roboto-Regular, Roboto">s</text>
  <text transform="matrix(-0.78, 0.62, -0.62, -0.78, 836.42, 524.03)" font-size="38" fill="#fff" font-family="Roboto-Regular, Roboto">l</text>
  <text transform="matrix(-0.81, 0.58, -0.58, -0.81, 829.58, 529.71)" font-size="38" fill="#fff" font-family="Roboto-Regular, Roboto">o</text>
  <text transform="matrix(-0.86, 0.51, -0.51, -0.86, 812.51, 542.11)" font-size="38" fill="#fff" font-family="Roboto-Regular, Roboto">w</text>
  <text transform="translate(788.12 556.07) rotate(153.41)" font-size="38" fill="#fff" font-family="Roboto-Regular, Roboto"> </text>
  <text transform="matrix(-0.92, 0.4, -0.4, -0.92, 780.06, 560.27)" font-size="38" fill="#fff" font-family="Roboto-Regular, Roboto">c</text>
  <text transform="matrix(-0.94, 0.33, -0.33, -0.94, 762.29, 568.07)" font-size="38" fill="#fff" font-family="Roboto-Regular, Roboto">a</text>
  <text transform="translate(743.14 574.75) rotate(163.91)" font-size="38" fill="#fff" font-family="Roboto-Regular, Roboto">r</text>
  <text transform="translate(731.02 578.21) rotate(166.17)" font-size="38" fill="#fff" font-family="Roboto-Regular, Roboto"> </text>
  <text transform="translate(722.27 580.55) rotate(169.32)" font-size="38" fill="#fff" font-family="Roboto-Regular, Roboto">o</text>
  <text transform="matrix(-0.99, 0.11, -0.11, -0.99, 701.44, 584.48)" font-size="38" fill="#fff" font-family="Roboto-Regular, Roboto">n</text>
  <text transform="translate(680.95 586.62) rotate(176.67)" font-size="38" fill="#fff" font-family="Roboto-Regular, Roboto"> </text>
  <text transform="translate(671.79 587.19) rotate(178.85)" font-size="38" fill="#fff" font-family="Roboto-Regular, Roboto">t</text>
  <text transform="translate(659.51 587.37) rotate(180)" font-size="38" fill="#fff" font-family="Roboto-Regular, Roboto">h<tspan x="20.91" y="0">e</tspan><tspan x="41.06" y="0"> </tspan><tspan x="50.45" y="0">h</tspan><tspan x="71.39" y="0">i</tspan><tspan x="80.61" y="0">g</tspan><tspan x="101.95" y="0">h</tspan><tspan x="122.86" y="0">w</tspan><tspan x="151.42" y="0">a</tspan><tspan x="171.82" y="0">y</tspan><tspan x="187.82" y="0">.</tspan><tspan x="197.82" y="0"> </tspan><tspan x="207.24" y="0">P</tspan><tspan x="230.99" y="0">a</tspan><tspan x="251.69" y="0">s</tspan><tspan x="271.26" y="0">s</tspan><tspan x="290.86" y="0">i</tspan><tspan x="300.09" y="0">n</tspan><tspan x="321.05" y="0">g</tspan><tspan x="342.35" y="0"> </tspan></text>
  <text transform="translate(308.03 587.57) rotate(-177.44)" font-size="38" fill="#fff" font-family="Roboto-Regular, Roboto">d</text>
  <text transform="matrix(-0.99, -0.12, 0.12, -0.99, 287.09, 586.64)" font-size="38" fill="#fff" font-family="Roboto-Regular, Roboto">u</text>
  <text transform="translate(266.67 584.09) rotate(-169.77)" font-size="38" fill="#fff" font-family="Roboto-Regular, Roboto">r</text>
  <text transform="translate(254.28 581.82) rotate(-167.53)" font-size="38" fill="#fff" font-family="Roboto-Regular, Roboto">i</text>
  <text transform="matrix(-0.96, -0.27, 0.27, -0.96, 245.58, 580.07)" font-size="38" fill="#fff" font-family="Roboto-Regular, Roboto">n</text>
  <text transform="translate(225.85 574.61) rotate(-160.17)" font-size="38" fill="#fff" font-family="Roboto-Regular, Roboto">g</text>
  <text transform="translate(206.18 567.36) rotate(-157.05)" font-size="38" fill="#fff" font-family="Roboto-Regular, Roboto"> </text>
  <text transform="matrix(-0.9, -0.44, 0.44, -0.9, 197.77, 563.97)" font-size="38" fill="#fff" font-family="Roboto-Regular, Roboto">a</text>
  <text transform="translate(179.56 554.93) rotate(-150.96)" font-size="38" fill="#fff" font-family="Roboto-Regular, Roboto"> </text>
  <text transform="translate(171.55 550.53) rotate(-148.71)" font-size="38" fill="#fff" font-family="Roboto-Regular, Roboto">r</text>
  <text transform="matrix(-0.82, -0.57, 0.57, -0.82, 161.44, 544.55)" font-size="38" fill="#fff" font-family="Roboto-Regular, Roboto">a</text>
  <text transform="matrix(-0.78, -0.62, 0.62, -0.78, 144.78, 533.09)" font-size="38" fill="#fff" font-family="Roboto-Regular, Roboto">c</text>
  <text transform="matrix(-0.74, -0.68, 0.68, -0.74, 129.58, 520.99)" font-size="38" fill="#fff" font-family="Roboto-Regular, Roboto">e</text>
  <text transform="translate(115.1 507.49) rotate(-134.43)" font-size="38" fill="#fff" font-family="Roboto-Regular, Roboto"> </text>
  <text transform="matrix(-0.68, -0.74, 0.74, -0.68, 108.66, 500.93)" font-size="38" fill="#fff" font-family="Roboto-Regular, Roboto">i</text>
  <text transform="matrix(-0.64, -0.77, 0.77, -0.64, 102.54, 494.47)" font-size="38" fill="#fff" font-family="Roboto-Regular, Roboto">s</text>
  <text transform="translate(90.29 479.76) rotate(-125.6)" font-size="38" fill="#fff" font-family="Roboto-Regular, Roboto">n</text>
  <text transform="translate(79.22 464.1) rotate(-123.02)" font-size="38" fill="#fff" font-family="Roboto-Regular, Roboto">’</text>
  <text transform="translate(75.17 457.95) rotate(-121)" font-size="38" fill="#fff" font-family="Roboto-Regular, Roboto">t</text>
  <text transform="matrix(-0.48, -0.88, 0.88, -0.48, 68.94, 447.54)" font-size="38" fill="#fff" font-family="Roboto-Regular, Roboto"> </text>
  <text transform="translate(64.49 439.46) rotate(-116.91)" font-size="38" fill="#fff" font-family="Roboto-Regular, Roboto">l</text>
  <text transform="translate(60.42 431.45) rotate(-115.05)" font-size="38" fill="#fff" font-family="Roboto-Regular, Roboto">i</text>
  <text transform="translate(56.52 423.43) rotate(-112.16)" font-size="38" fill="#fff" font-family="Roboto-Regular, Roboto">k</text>
  <text transform="translate(49.53 406.39) rotate(-108.24)" font-size="38" fill="#fff" font-family="Roboto-Regular, Roboto">e</text>
  <text transform="matrix(-0.26, -0.96, 0.96, -0.26, 43.47, 387.54)" font-size="38" fill="#fff" font-family="Roboto-Regular, Roboto"> </text>
  <text transform="translate(40.92 378.86) rotate(-102.1)" font-size="38" fill="#fff" font-family="Roboto-Regular, Roboto">d</text>
  <text transform="translate(36.63 358.28) rotate(-98.63)" font-size="38" fill="#fff" font-family="Roboto-Regular, Roboto">r</text>
  <text transform="matrix(-0.11, -0.99, 0.99, -0.11, 34.77, 345.8)" font-size="38" fill="#fff" font-family="Roboto-Regular, Roboto">i</text>
  <text transform="matrix(-0.06, -1, 1, -0.06, 33.66, 336.97)" font-size="38" fill="#fff" font-family="Roboto-Regular, Roboto">v</text>
  <text transform="matrix(-0.01, -1, 1, -0.01, 32.6, 318.92)" font-size="38" fill="#fff" font-family="Roboto-Regular, Roboto">i</text>
  <text transform="translate(32.3 310.02) rotate(-87.85)" font-size="38" fill="#fff" font-family="Roboto-Regular, Roboto">n</text>
  <text transform="translate(33.04 289.55) rotate(-83.66)" font-size="38" fill="#fff" font-family="Roboto-Regular, Roboto">g</text>
  <text transform="matrix(0.16, -0.99, 0.99, 0.16, 35.51, 268.73)" font-size="38" fill="#fff" font-family="Roboto-Regular, Roboto"> </text>
  <text transform="translate(36.84 259.76) rotate(-77.51)" font-size="38" fill="#fff" font-family="Roboto-Regular, Roboto">a</text>
  <text transform="translate(41.33 239.97) rotate(-74.1)" font-size="38" fill="#fff" font-family="Roboto-Regular, Roboto">r</text>
  <text transform="translate(44.49 228.29) rotate(-70.67)" font-size="38" fill="#fff" font-family="Roboto-Regular, Roboto">o</text>
  <text transform="translate(51.5 208.3) rotate(-66.34)" font-size="38" fill="#fff" font-family="Roboto-Regular, Roboto">u</text>
  <text transform="matrix(0.47, -0.88, 0.88, 0.47, 59.7, 189.55)" font-size="38" fill="#fff" font-family="Roboto-Regular, Roboto">n</text>
  <text transform="matrix(0.53, -0.85, 0.85, 0.53, 69.26, 171.44)" font-size="38" fill="#fff" font-family="Roboto-Regular, Roboto">d</text>
  <text transform="matrix(0.58, -0.82, 0.82, 0.58, 80.61, 153.69)" font-size="38" fill="#fff" font-family="Roboto-Regular, Roboto"> </text>
  <text transform="matrix(0.62, -0.78, 0.78, 0.62, 85.72, 146.19)" font-size="38" fill="#fff" font-family="Roboto-Regular, Roboto">a</text>
  <text transform="translate(98.42 130.34) rotate(-48.67)" font-size="38" fill="#fff" font-family="Roboto-Regular, Roboto"> </text>
  <text transform="translate(104.32 123.43) rotate(-45.76)" font-size="38" fill="#fff" font-family="Roboto-Regular, Roboto">s</text>
  <text transform="matrix(0.73, -0.68, 0.68, 0.73, 117.84, 109.72)" font-size="38" fill="#fff" font-family="Roboto-Regular, Roboto">l</text>
  <text transform="matrix(0.77, -0.64, 0.64, 0.77, 124.24, 103.54)" font-size="38" fill="#fff" font-family="Roboto-Regular, Roboto">o</text>
  <text transform="translate(140.33 89.91) rotate(-34.73)" font-size="38" fill="#fff" font-family="Roboto-Regular, Roboto">w</text>
  <text transform="translate(163.61 74.14) rotate(-30.91)" font-size="38" fill="#fff" font-family="Roboto-Regular, Roboto"> </text>
  <text transform="translate(171.34 69.35) rotate(-27.94)" font-size="38" fill="#fff" font-family="Roboto-Regular, Roboto">c</text>
  <text transform="translate(188.48 60.22) rotate(-23.84)" font-size="38" fill="#fff" font-family="Roboto-Regular, Roboto">a</text>
  <text transform="translate(207.08 52.12) rotate(-20.43)" font-size="38" fill="#fff" font-family="Roboto-Regular, Roboto">r</text>
  <text transform="translate(218.89 47.75) rotate(-18.17)" font-size="38" fill="#fff" font-family="Roboto-Regular, Roboto"> </text>
  <text transform="matrix(0.97, -0.26, 0.26, 0.97, 227.44, 44.76)" font-size="38" fill="#fff" font-family="Roboto-Regular, Roboto">o</text>
  <text transform="translate(247.89 39.27) rotate(-10.68)" font-size="38" fill="#fff" font-family="Roboto-Regular, Roboto">n</text>
  <text transform="translate(268.18 35.59) rotate(-7.61)" font-size="38" fill="#fff" font-family="Roboto-Regular, Roboto"> </text>
  <text transform="translate(277.25 34.34) rotate(-5.41)" font-size="38" fill="#fff" font-family="Roboto-Regular, Roboto">t</text>
  <text transform="translate(289.23 33.07) rotate(-2.08)" font-size="38" fill="#fff" font-family="Roboto-Regular, Roboto">h</text>
  <text transform="translate(309.9 32.51)" font-size="38" fill="#fff" font-family="Roboto-Regular, Roboto">e<tspan x="20.12" y="0"> </tspan><tspan x="29.55" y="0">h</tspan><tspan x="50.47" y="0">i</tspan><tspan x="59.7" y="0">g</tspan><tspan x="81.01" y="0">h</tspan><tspan x="101.96" y="0">w</tspan><tspan x="130.51" y="0">a</tspan><tspan x="150.9" y="0">y</tspan><tspan x="166.92" y="0">.</tspan><tspan x="176.92" y="0"> </tspan></text>
</svg>
